<?xml version="1.0" encoding="UTF-8"?><svg id="Ebene_4" xmlns="http://www.w3.org/2000/svg" viewBox="0 0 2193 804.77"><defs><style>.cls-1{letter-spacing:-.02em;}.cls-2{stroke-width:0px;}.cls-2,.cls-3,.cls-4{fill:#000;}.cls-3{font-size:87.67px;}.cls-3,.cls-4{font-family:FormaDJRDisplay-Medium, 'Forma DJR Display';font-weight:500;}.cls-5{letter-spacing:0em;}.cls-6{letter-spacing:-.02em;}.cls-7{letter-spacing:0em;}.cls-8{letter-spacing:0em;}.cls-9{letter-spacing:0em;}.cls-4{font-size:60px;}.cls-10{letter-spacing:-.02em;}.cls-11{letter-spacing:0em;}.cls-12{letter-spacing:-.04em;}.cls-13{letter-spacing:-.01em;}.cls-14{letter-spacing:-.02em;}.cls-15{letter-spacing:-.02em;}</style></defs><polygon class="cls-2" points="299 620 931 159 1496 580 931 0 299 620"/><polygon class="cls-2" points="1146 207 1146 119 1229.05 119 1229 288 1146 207"/><polygon class="cls-2" points="1633 285.83 1633 207.42 1707 207.42 1706.95 358 1633 285.83"/><polygon class="cls-2" points="1479.52 136.62 1277.4 334.9 1318.05 375.55 1479.52 257.76 1910 578.52 1479.52 136.62"/><polygon class="cls-2" points="551 483 931 205 1277.4 463.06 931 236 551 483"/><rect class="cls-2" x="847" y="354.5" width="71" height="71"/><rect class="cls-2" x="939" y="354.5" width="71" height="71"/><rect class="cls-2" x="847" y="449" width="71" height="71"/><rect class="cls-2" x="939" y="449" width="71" height="71"/><polygon class="cls-2" points="675 715 0 716 55 678 675 678 675 715"/><polygon class="cls-2" points="1518 715 2193 716 2138 678 1518 678 1518 715"/><rect class="cls-2" x="739.5" y="689" width="710" height="16"/><text class="cls-3" transform="translate(736.13 654.85) scale(.8 1)"><tspan class="cls-11" x="0" y="0">S</tspan><tspan x="53.56" y="0">chneide</tspan><tspan class="cls-6" x="344.17" y="0">r</tspan><tspan class="cls-5" x="374.33" y="0"> </tspan><tspan class="cls-7" x="390.11" y="0">D</tspan><tspan class="cls-5" x="447.62" y="0">ac</tspan><tspan class="cls-13" x="539.14" y="0">h</tspan><tspan class="cls-15" x="582.97" y="0">t</tspan><tspan x="610.06" y="0">echnik </tspan></text><text class="cls-4" transform="translate(828.37 790.79) scale(.8 1)"><tspan x="0" y="0">Ih</tspan><tspan class="cls-14" x="42.54" y="0">r</tspan><tspan x="63.18" y="0"> </tspan><tspan class="cls-8" x="73.98" y="0">D</tspan><tspan x="113.34" y="0">achdec</tspan><tspan class="cls-12" x="301.14" y="0">k</tspan><tspan x="326.82" y="0">e</tspan><tspan class="cls-14" x="358.68" y="0">r</tspan><tspan x="379.32" y="0" xml:space="preserve"> N</tspan><tspan class="cls-10" x="429.06" y="0">o</tspan><tspan class="cls-1" x="460.14" y="0">t</tspan><tspan x="478.67" y="0">dien</tspan><tspan class="cls-14" x="584.57" y="0">s</tspan><tspan class="cls-9" x="613.19" y="0">t</tspan></text></svg>