<?xml version="1.0" encoding="UTF-8" standalone="no"?>
<!-- Created with Inkscape (http://www.inkscape.org/) -->

<svg
   version="1.1"
   id="svg2"
   width="3333.3333"
   height="3333.3333"
   viewBox="0 0 3333.3333 3333.3333"
   sodipodi:docname="mainLogo.ai"
   xmlns:inkscape="http://www.inkscape.org/namespaces/inkscape"
   xmlns:sodipodi="http://sodipodi.sourceforge.net/DTD/sodipodi-0.dtd"
   xmlns="http://www.w3.org/2000/svg"
   xmlns:svg="http://www.w3.org/2000/svg">
  <defs
     id="defs6" />
  <sodipodi:namedview
     id="namedview4"
     pagecolor="#ffffff"
     bordercolor="#000000"
     borderopacity="0.25"
     inkscape:showpageshadow="2"
     inkscape:pageopacity="0.0"
     inkscape:pagecheckerboard="0"
     inkscape:deskcolor="#d1d1d1" />
  <g
     id="g8"
     inkscape:groupmode="layer"
     inkscape:label="mainLogo"
     transform="matrix(1.3333333,0,0,-1.3333333,0,3333.3333)">
    <g
       id="g10"
       transform="translate(437,1334)">
      <path
         d="M 0,0 632,461 1197,40 632,620 Z"
         style="fill:#040606;fill-opacity:1;fill-rule:nonzero;stroke:none"
         id="path12" />
    </g>
    <g
       id="g14"
       transform="translate(1284,1747)">
      <path
         d="M 0,0 V 88 H 83.053 L 83,-81 Z"
         style="fill:#040606;fill-opacity:1;fill-rule:nonzero;stroke:none"
         id="path16" />
    </g>
    <g
       id="g18"
       transform="translate(1771,1668.1709)">
      <path
         d="M 0,0 V 78.408 H 74 L 73.953,-72.171 Z"
         style="fill:#040606;fill-opacity:1;fill-rule:nonzero;stroke:none"
         id="path20" />
    </g>
    <g
       id="g22"
       transform="translate(1617.5238,1817.381)">
      <path
         d="m 0,0 -202.12,-198.282 40.646,-40.645 L 0,-121.143 430.476,-441.905 Z"
         style="fill:#040606;fill-opacity:1;fill-rule:nonzero;stroke:none"
         id="path24" />
    </g>
    <g
       id="g26"
       transform="translate(689,1471)">
      <path
         d="M 0,0 380,278 726.404,19.937 380,247 Z"
         style="fill:#040606;fill-opacity:1;fill-rule:nonzero;stroke:none"
         id="path28" />
    </g>
    <path
       d="m 1056,1528.5 h -71 v 71 h 71 z"
       style="fill:#040606;fill-opacity:1;fill-rule:nonzero;stroke:none"
       id="path30" />
    <path
       d="m 1148,1528.5 h -71 v 71 h 71 z"
       style="fill:#040606;fill-opacity:1;fill-rule:nonzero;stroke:none"
       id="path32" />
    <path
       d="m 1056,1434 h -71 v 71 h 71 z"
       style="fill:#040606;fill-opacity:1;fill-rule:nonzero;stroke:none"
       id="path34" />
    <path
       d="m 1148,1434 h -71 v 71 h 71 z"
       style="fill:#040606;fill-opacity:1;fill-rule:nonzero;stroke:none"
       id="path36" />
    <g
       id="g38"
       transform="translate(813,1239)">
      <path
         d="m 0,0 -675,-1 55,38 H 0 Z"
         style="fill:#f4711f;fill-opacity:1;fill-rule:nonzero;stroke:none"
         id="path40" />
    </g>
    <g
       id="g42"
       transform="translate(1656,1239)">
      <path
         d="M 0,0 675,-1 620,37 H 0 Z"
         style="fill:#f4711f;fill-opacity:1;fill-rule:nonzero;stroke:none"
         id="path44" />
    </g>
    <path
       d="m 1587.5,1249 h -710 v 16 h 710 z"
       style="fill:#040606;fill-opacity:1;fill-rule:nonzero;stroke:none"
       id="path46" />
    <text
       xml:space="preserve"
       transform="matrix(0.79800996,0,0,-1,874.1338,1299.1543)"
       style="font-variant:normal;font-weight:500;font-stretch:normal;font-size:87.6667px;font-family:'Forma DJR Display';-inkscape-font-specification:FormaDJRDisplay-Medium;writing-mode:lr-tb;fill:#f4711f;fill-opacity:1;fill-rule:nonzero;stroke:none"
       id="text50"><tspan
         x="0 53.564354 98.099037 142.89673 187.86974 234.42076 250.6391 297.62845 344.17947 374.33682 390.11682 447.62616 494.61551 539.15021 582.98358 610.07257 656.6236 701.15826 745.95593 790.92896 807.14728 848.263"
         y="0"
         sodipodi:role="line"
         id="tspan48">Schneider Dachtechnik </tspan></text>
    <text
       xml:space="preserve"
       transform="matrix(0.79801,0,0,-1,966.3662,1163.207)"
       style="font-variant:normal;font-weight:500;font-stretch:normal;font-size:60px;font-family:'Forma DJR Display';-inkscape-font-specification:FormaDJRDisplay-Medium;writing-mode:lr-tb;fill:#f4711f;fill-opacity:1;fill-rule:nonzero;stroke:none"
       id="text54"><tspan
         x="0 11.88 42.540001 63.18 73.980003 113.34 145.5 175.98 206.64 238.8 270.66 301.14001 326.82001 358.67999 379.32001 390.12 429.06 460.14001 478.67999 510.84 521.94 553.79999 584.58002 613.20001"
         y="0"
         sodipodi:role="line"
         id="tspan52">Ihr Dachdecker Notdienst</tspan></text>
  </g>
</svg>
